<?xml version="1.0" standalone="no"?>
<!DOCTYPE svg PUBLIC "-//W3C//DTD SVG 20010904//EN"
 "http://www.w3.org/TR/2001/REC-SVG-20010904/DTD/svg10.dtd">
<svg version="1.0" xmlns="http://www.w3.org/2000/svg"
 width="802.000000pt" height="802.000000pt" viewBox="0 0 802.000000 802.000000"
 preserveAspectRatio="xMidYMid meet">
<metadata>
Created by potrace 1.11, written by Peter Selinger 2001-2013
</metadata>
<g transform="translate(0.000000,802.000000) scale(0.100000,-0.100000)"
fill="#000000" stroke="none">
<path d="M2157 6826 c-65 -27 -108 -67 -133 -123 -16 -35 -17 -141 -18 -1330
-1 -710 -4 -1289 -8 -1287 -3 2 -10 18 -13 35 -4 18 -26 50 -52 74 -82 79 -56
77 -958 73 -787 -3 -790 -3 -835 -25 -60 -29 -119 -92 -124 -135 -1 -3 -4 -10
-8 -14 -4 -4 -8 -657 -8 -1451 l0 -1444 52 1 c29 1 58 1 63 1 10 -2 907 -2
1778 -1 236 0 432 -2 437 -5 5 -3 7 -12 3 -20 -4 -13 83 -15 691 -15 685 0
696 0 696 20 0 19 19 19 1883 19 1035 0 2002 1 2150 1 l267 0 -1 938 c-1 874
-2 940 -18 977 -28 62 -84 110 -153 131 -57 17 -112 18 -817 18 -416 0 -776
-4 -800 -7 -93 -14 -184 -83 -198 -150 -3 -15 -8 -25 -12 -22 -3 4 -7 451 -7
993 -1 543 -3 988 -4 990 -1 1 -3 5 -4 10 -7 30 -45 88 -75 113 -76 63 -69 62
-896 63 -767 1 -834 -2 -903 -38 -47 -24 -89 -72 -106 -119 -13 -38 -15 39
-16 753 -1 437 -2 798 -1 803 3 20 -52 108 -85 135 -76 63 -51 61 -919 61
l-790 0 -58 -23z"/>
</g>
</svg>
